<svg xmlns="http://www.w3.org/2000/svg" width="26" height="26"><path d="M13 .188C5.926.188.187 5.926.187 13c0 7.074 5.739 12.813 12.813 12.813 7.074 0 12.813-5.739 12.813-12.813C25.813 5.926 20.073.187 13 .187zm0 2c5.96 0 10.813 4.851 10.813 10.812 0 .469-.036.922-.094 1.375-.2-.05-.824-.21-1.5-.219-.606-.008-1.332.094-1.719.156.102-.414.188-.855.188-1.312 0-1.14-.43-2.25-1.188-3.188.281-.882.672-2.89-.094-3.656-1.875 0-2.93 1.192-3.125 1.438a8.088 8.088 0 00-2.781-.469c-.969 0-1.906.14-2.75.438a4.045 4.045 0 00-3.094-1.407c-.75.75-.375 2.684-.093 3.594-.793.953-1.25 2.082-1.25 3.25 0 .43.035.86.125 1.25-.329-.027-1.66-.125-2.188-.125-.527 0-1.395.113-1.969.25A10.648 10.648 0 012.187 13C2.188 7.04 7.04 2.187 13 2.187zM4.25 14.374c.52 0 2.121.145 2.281.156.028.094.059.188.094.281-.527-.042-1.656-.117-2.375-.03a4.86 4.86 0 00-1.781.593c-.055-.246-.117-.5-.156-.75.55-.129 1.449-.25 1.937-.25zm17.969.031c.656.008 1.3.149 1.468.188-.015.113-.042.23-.062.344-.086-.024-.867-.262-1.688-.282-.402-.011-1.039.055-1.53.094.023-.063.042-.125.062-.188.34-.046 1.148-.164 1.75-.156zm-.313.5c.797.02 1.64.27 1.688.281-.739 3.59-3.258 6.512-6.594 7.844v-1.718c0-1.083-.645-2.489-1.563-3.188 2.586-.371 4.196-1.516 4.876-3.125.464-.04 1.175-.105 1.593-.094zM5.063 15c.714.004 1.355.04 1.656.063.695 1.574 2.293 2.695 4.843 3.062a3.595 3.595 0 00-.78.844c-.009.011-.024.02-.032.031-.5.602-1.438.563-2.313.563-.894 0-1.43-.715-1.906-1.344-.48-.625-1.105-.68-1.437-.719-.332-.035-.422.133-.25.25.972.684 1.355 1.52 1.75 2.25.355.656 1.086 1 1.906 1h1.531c-.011.102-.031.215-.031.313v2.062a10.79 10.79 0 01-7.469-7.75c.196-.11.883-.492 1.75-.594A7.64 7.64 0 015.063 15zm8.437 6c.277 0 .5.223.5.5v2.25c-.332.031-.66.063-1 .063V21.5c0-.277.223-.5.5-.5zm-2 .594c.277 0 .5.222.5.5v1.656a12.052 12.052 0 01-1-.125v-1.531c0-.278.223-.5.5-.5zm4 0c.277 0 .5.222.5.5v1.281c-.328.094-.66.188-1 .25v-1.531c0-.278.223-.5.5-.5z"/></svg>